<svg xmlns="http://www.w3.org/2000/svg" viewBox="0 0 32 32">
  <!-- 背景（可选，如果想要圆形图标可以加，否则删掉这行） -->
  <circle cx="16" cy="16" r="16" fill="#f0f9ff"/>
  
  <!-- 鲸鱼主体 -->
  <path d="M4,18 C4,12 10,10 18,10 C24,10 28,14 28,18 C28,21 26,23 22,23 L10,23 C6,23 4,21 4,18 Z" fill="#0ea5e9"/>
  
  <!-- 尾巴 -->
  <path d="M28,18 C30,16 32,16 32,19 C32,22 30,22 28,20" fill="#0ea5e9"/>
  
  <!-- 眼睛 -->
  <circle cx="10" cy="16" r="1.5" fill="white"/>
  
  <!-- 喷水 -->
  <g stroke="#38bdf8" stroke-width="2" stroke-linecap="round">
    <line x1="16" y1="8" x2="16" y2="5" />
    <line x1="14" y1="7" x2="13" y2="5" />
    <line x1="18" y1="7" x2="19" y2="5" />
  </g>
</svg>
